<svg width="23" height="25" viewBox="0 0 23 25" fill="none" xmlns="http://www.w3.org/2000/svg">
<path d="M1 9C1 5.13401 4.13401 2 8 2H15C18.866 2 22 5.13401 22 9V21C22 22.6569 20.6569 24 19 24H4C2.34315 24 1 22.6569 1 21V9Z" fill="white" stroke="#656565"/>
<rect x="6" width="2.54545" height="2" rx="0.5" fill="#656565"/>
<rect x="14.5454" width="2.54545" height="2" rx="0.5" fill="#656565"/>
<path d="M6 12.3C6 12.1343 6.13431 12 6.3 12H16.7C16.8657 12 17 12.1343 17 12.3V15.7C17 15.8657 16.8657 16 16.7 16H15.3C15.1343 16 15 15.8657 15 15.7V14.3C15 14.1343 14.8657 14 14.7 14H6.3C6.13431 14 6 13.8657 6 13.7V12.3Z" fill="#656565"/>
</svg>
