<svg width="412" height="59" viewBox="0 0 412 59" fill="none" xmlns="http://www.w3.org/2000/svg">
<path d="M20.1786 44.5653L25.7438 44.1015L24.6616 32.3528L18.8646 33.976L19.7921 41.0871L16.7004 42.5556H19.9467L20.1786 44.5653ZM16.1593 10.324V18.0534L21.6472 17.0486L20.4105 9.62835L16.1593 10.324ZM40.9707 45.6474L37.2606 46.1885L40.9707 46.6522V50.0532L28.1399 55.3092L2.55553 54.6135L0.314 9.31918L2.24635 8.23706L0.236706 7.61871L0.00482349 3.29024L27.2896 0.739531L35.5601 4.91341L35.4055 13.2612L34.0915 13.8022L35.4055 14.1114L35.3282 20.9133L30.2268 24.0824L40.9707 28.6427V45.6474ZM79.9891 46.1112L74.2694 47.0387L80.0664 47.1933L80.221 52.6812L54.0183 55.0773L44.2793 53.2222L43.8155 36.3721L46.057 35.29L43.7382 34.2852L42.8107 0.739531L60.7429 0.353061L61.5158 11.7153L57.4193 13.4158H61.5931L63.2163 38.1499L79.68 37.6861L79.9891 46.1112ZM97.7813 40.546L107.984 39.0001L103.81 16.4302L96.8537 16.3529L97.1629 24.2369L94.3803 24.7007L97.1629 25.3964L97.7813 40.546ZM120.506 17.6669L116.332 19.2901L120.66 18.9036L121.82 47.116L114.631 50.0532L107.984 50.5942L111.849 51.2126L102.419 55.0773L83.1727 49.0484L82.0906 35.5992L86.2645 34.9808L82.0133 34.2079L80.0809 10.7105L102.032 1.58976L120.119 8.23706L120.506 17.6669ZM160.899 18.2853L139.489 17.9761L139.643 20.836L136.783 21.4544L139.721 21.7635L141.112 40.1595L160.358 41.3189L160.667 45.3382L156.957 46.6522L160.899 47.0387L161.44 55L134.155 55.8502L131.296 51.6764L134.928 50.6715H130.6L124.262 41.3189L123.334 16.6621L135.238 2.44L161.749 3.21294L160.899 18.2853ZM202.23 19.4447L194.655 30.5751L206.249 51.6764L192.491 58.7874L189.863 53.0676L191.409 51.9855L189.476 52.1401L183.834 39.8504L185.612 56.7005L166.597 56.3913L165.747 43.5605L170.694 42.7875L165.67 42.2465L163.042 4.06318L180.665 2.20812L180.974 10.2467L179.273 11.0969L180.974 11.7153L181.283 21.2998L191.95 3.90859L205.399 14.9616L203.003 18.3626L200.143 17.4351L202.23 19.4447ZM244.232 18.2853L222.821 17.9761L222.976 20.836L220.116 21.4544L223.053 21.7635L224.445 40.1595L243.691 41.3189L244 45.3382L240.29 46.6522L244.232 47.0387L244.773 55L217.488 55.8502L214.628 51.6764L218.261 50.6715H213.933L207.594 41.3189L206.667 16.6621L218.57 2.44L245.082 3.21294L244.232 18.2853ZM270.413 24.2369V11.7153H263.07L263.997 19.7539L262.374 20.836L264.229 21.1452L264.77 26.1693L270.413 24.2369ZM280.229 33.2031L288.036 43.7151L290.896 52.1401L275.128 58.7874L264.538 37.6861L264.616 46.8068L260.519 47.6571L264.693 48.3527L264.77 55.0773L248.925 55.3092L246.838 6.76847L251.476 5.99553L246.761 5.22259L246.684 2.90377L257.737 0.739531L285.099 1.97623L285.794 22.5365L282.625 23.3094L285.794 23.7732L285.949 27.8698L280.229 33.2031ZM309.988 31.348L315.012 31.8118L312.539 16.0438L310.838 17.4351L310.375 26.2466L308.597 26.7104L310.297 27.6379L309.988 31.348ZM332.481 47.1933L327.766 48.5846H332.79L333.717 52.7585L318.568 54.8454L316.79 43.9469L309.447 43.0194L306.201 56.0821L290.665 52.9904L292.751 40.7006L296.384 41.0098L292.906 39.5412L299.399 1.74436L322.973 3.05835L327.07 22.0727L325.292 22.9229L327.379 23.3094L332.481 47.1933ZM371.727 5.68635L367.012 6.15012L371.805 6.76847L372.887 16.8167L352.172 17.8988L352.404 21.2998L368.481 20.6814L368.713 28.6427L367.012 29.1838L368.713 29.8021L368.867 34.2079L351.94 34.8262L352.017 42.7875L347.534 43.4059L352.017 44.1788L352.172 55H335.94L335.322 27.8698L338.955 27.1741L335.167 26.7104L334.703 5.29988L354.8 1.28059L371.573 4.29506L371.727 5.68635ZM411.361 5.37718L409.506 6.53659L411.438 6.84577L411.825 17.7442L401.158 19.1355L401.236 21.1452L398.144 22.3046L401.236 22.15L402.318 55.7729H385.854L385.158 39.1547L387.323 38.3818L385.158 37.9953L384.385 19.2901L372.405 18.5945L372.482 14.3433L375.806 13.8795L372.482 13.1839L372.637 2.74917L411.284 2.05353L411.361 5.37718Z" fill="#F0F0F0"/>
<path d="M20.1786 44.5653L18.0457 44.8114L18.2841 46.8777L20.3569 46.7049L20.1786 44.5653ZM25.7438 44.1015L25.9221 46.2412L28.0804 46.0613L27.8818 43.9046L25.7438 44.1015ZM24.6616 32.3528L26.7997 32.1559L26.5634 29.5907L24.0827 30.2853L24.6616 32.3528ZM18.8646 33.976L18.2857 31.9085L16.4951 32.4098L16.7356 34.2537L18.8646 33.976ZM19.7921 41.0871L20.7133 43.0264L22.123 42.3569L21.9211 40.8094L19.7921 41.0871ZM16.7004 42.5556L15.7791 40.6163L16.7004 44.7027V42.5556ZM19.9467 42.5556L22.0796 42.3095L21.8603 40.4086H19.9467V42.5556ZM16.1593 10.324L15.8126 8.20512L14.0122 8.49972V10.324H16.1593ZM16.1593 18.0534H14.0122V20.6293L16.546 20.1654L16.1593 18.0534ZM21.6472 17.0486L22.0339 19.1605L24.1124 18.78L23.765 16.6956L21.6472 17.0486ZM20.4105 9.62835L22.5283 9.27538L22.1764 7.16377L20.0637 7.50948L20.4105 9.62835ZM40.9707 45.6474L41.2805 47.772L43.1178 47.5041V45.6474H40.9707ZM37.2606 46.1885L36.9508 44.0639L36.9943 48.3189L37.2606 46.1885ZM40.9707 46.6522H43.1178V44.7569L41.237 44.5218L40.9707 46.6522ZM40.9707 50.0532L41.7846 52.04L43.1178 51.4939V50.0532H40.9707ZM28.1399 55.3092L28.0815 57.4554L28.5345 57.4678L28.9538 57.296L28.1399 55.3092ZM2.55553 54.6135L0.411095 54.7197L0.509383 56.7057L2.49717 56.7598L2.55553 54.6135ZM0.314 9.31918L-0.73506 7.44586L-1.89621 8.0961L-1.83043 9.4253L0.314 9.31918ZM2.24635 8.23706L3.29541 10.1104L7.67131 7.65988L2.87777 6.18495L2.24635 8.23706ZM0.236706 7.61871L-1.90728 7.73356L-1.82711 9.23008L-0.394715 9.67082L0.236706 7.61871ZM0.00482349 3.29024L-0.195022 1.1525L-2.24955 1.34456L-2.13916 3.40509L0.00482349 3.29024ZM27.2896 0.739531L28.257 -1.17726L27.7052 -1.45574L27.0898 -1.39821L27.2896 0.739531ZM35.5601 4.91341L37.7068 4.95317L37.7318 3.60441L36.5275 2.99662L35.5601 4.91341ZM35.4055 13.2612L36.223 15.2465L37.5261 14.7099L37.5522 13.3009L35.4055 13.2612ZM34.0915 13.8022L33.274 11.8169L27.0943 14.3615L33.5998 15.8922L34.0915 13.8022ZM35.4055 14.1114L37.5524 14.1358L37.572 12.4155L35.8973 12.0214L35.4055 14.1114ZM35.3282 20.9133L36.4612 22.7371L37.4618 22.1155L37.4752 20.9377L35.3282 20.9133ZM30.2268 24.0824L29.0939 22.2586L25.579 24.442L29.3879 26.0587L30.2268 24.0824ZM40.9707 28.6427H43.1178V27.2216L41.8096 26.6663L40.9707 28.6427ZM20.3569 46.7049L25.9221 46.2412L25.5655 41.9619L20.0003 42.4257L20.3569 46.7049ZM27.8818 43.9046L26.7997 32.1559L22.5236 32.5497L23.6058 44.2985L27.8818 43.9046ZM24.0827 30.2853L18.2857 31.9085L19.4435 36.0435L25.2406 34.4204L24.0827 30.2853ZM16.7356 34.2537L17.6631 41.3648L21.9211 40.8094L20.9936 33.6983L16.7356 34.2537ZM18.8709 39.1477L15.7791 40.6163L17.6216 44.495L20.7133 43.0264L18.8709 39.1477ZM16.7004 44.7027H19.9467V40.4086H16.7004V44.7027ZM17.8138 42.8018L18.0457 44.8114L22.3115 44.3192L22.0796 42.3095L17.8138 42.8018ZM14.0122 10.324V18.0534H18.3064V10.324H14.0122ZM16.546 20.1654L22.0339 19.1605L21.2605 14.9366L15.7726 15.9415L16.546 20.1654ZM23.765 16.6956L22.5283 9.27538L18.2926 9.98133L19.5293 17.4016L23.765 16.6956ZM20.0637 7.50948L15.8126 8.20512L16.506 12.4429L20.7572 11.7472L20.0637 7.50948ZM40.6609 43.5228L36.9508 44.0639L37.5704 48.3131L41.2805 47.772L40.6609 43.5228ZM36.9943 48.3189L40.7044 48.7827L41.237 44.5218L37.5269 44.058L36.9943 48.3189ZM38.8236 46.6522V50.0532H43.1178V46.6522H38.8236ZM40.1568 48.0664L27.326 53.3224L28.9538 57.296L41.7846 52.04L40.1568 48.0664ZM28.1982 53.1629L2.61389 52.4673L2.49717 56.7598L28.0815 57.4554L28.1982 53.1629ZM4.69996 54.5074L2.45843 9.21305L-1.83043 9.4253L0.411095 54.7197L4.69996 54.5074ZM1.36306 11.1925L3.29541 10.1104L1.19729 6.36374L-0.73506 7.44586L1.36306 11.1925ZM2.87777 6.18495L0.868127 5.56659L-0.394715 9.67082L1.61493 10.2892L2.87777 6.18495ZM2.38069 7.50385L2.14881 3.17538L-2.13916 3.40509L-1.90728 7.73356L2.38069 7.50385ZM0.204669 5.42797L27.4895 2.87727L27.0898 -1.39821L-0.195022 1.1525L0.204669 5.42797ZM26.3223 2.65632L34.5928 6.83021L36.5275 2.99662L28.257 -1.17726L26.3223 2.65632ZM33.4134 4.87366L33.2588 13.2214L37.5522 13.3009L37.7068 4.95317L33.4134 4.87366ZM34.588 11.2758L33.274 11.8169L34.909 15.7876L36.223 15.2465L34.588 11.2758ZM33.5998 15.8922L34.9138 16.2014L35.8973 12.0214L34.5833 11.7123L33.5998 15.8922ZM33.2586 14.087L33.1813 20.8889L37.4752 20.9377L37.5524 14.1358L33.2586 14.087ZM34.1953 19.0895L29.0939 22.2586L31.3598 25.9062L36.4612 22.7371L34.1953 19.0895ZM29.3879 26.0587L40.1318 30.6191L41.8096 26.6663L31.0657 22.106L29.3879 26.0587ZM38.8236 28.6427V45.6474H43.1178V28.6427H38.8236ZM79.9891 46.1112L80.3328 48.2306L82.2043 47.9271L82.1348 46.0324L79.9891 46.1112ZM74.2694 47.0387L73.9257 44.9193L74.2121 49.185L74.2694 47.0387ZM80.0664 47.1933L82.2126 47.1328L82.1554 45.1012L80.1237 45.047L80.0664 47.1933ZM80.221 52.6812L80.4165 54.8193L82.424 54.6357L82.3672 52.6207L80.221 52.6812ZM54.0183 55.0773L53.6166 57.1864L53.9132 57.2429L54.2138 57.2154L54.0183 55.0773ZM44.2793 53.2222L42.133 53.2813L42.1805 55.0081L43.8775 55.3314L44.2793 53.2222ZM43.8155 36.3721L42.8821 34.4386L41.631 35.0425L41.6692 36.4312L43.8155 36.3721ZM46.057 35.29L46.9905 37.2235L51.2139 35.1846L46.9107 33.32L46.057 35.29ZM43.7382 34.2852L41.592 34.3445L41.6298 35.7115L42.8845 36.2552L43.7382 34.2852ZM42.8107 0.739531L42.7644 -1.40703L40.6047 -1.36048L40.6644 0.798874L42.8107 0.739531ZM60.7429 0.353061L62.885 0.207339L62.7459 -1.83766L60.6966 -1.7935L60.7429 0.353061ZM61.5158 11.7153L62.339 13.6983L63.7626 13.1074L63.6579 11.5696L61.5158 11.7153ZM57.4193 13.4158L56.5961 11.4328L57.4193 15.5628V13.4158ZM61.5931 13.4158L63.7356 13.2752L63.6039 11.2687H61.5931V13.4158ZM63.2163 38.1499L61.0739 38.2905L61.2093 40.3543L63.2768 40.2961L63.2163 38.1499ZM79.68 37.6861L81.8256 37.6074L81.7475 35.48L79.6195 35.5399L79.68 37.6861ZM79.6455 43.9918L73.9257 44.9193L74.6131 49.1581L80.3328 48.2306L79.6455 43.9918ZM74.2121 49.185L80.0092 49.3396L80.1237 45.047L74.3266 44.8924L74.2121 49.185ZM77.9202 47.2538L78.0748 52.7416L82.3672 52.6207L82.2126 47.1328L77.9202 47.2538ZM80.0255 50.543L53.8228 52.9392L54.2138 57.2154L80.4165 54.8193L80.0255 50.543ZM54.4201 52.9682L44.681 51.1131L43.8775 55.3314L53.6166 57.1864L54.4201 52.9682ZM46.4255 53.1632L45.9617 36.313L41.6692 36.4312L42.133 53.2813L46.4255 53.1632ZM44.7489 38.3057L46.9905 37.2235L45.1236 33.3565L42.8821 34.4386L44.7489 38.3057ZM46.9107 33.32L44.5919 32.3151L42.8845 36.2552L45.2033 37.26L46.9107 33.32ZM45.8844 34.2258L44.9569 0.680188L40.6644 0.798874L41.592 34.3445L45.8844 34.2258ZM42.8569 2.88609L60.7892 2.49962L60.6966 -1.7935L42.7644 -1.40703L42.8569 2.88609ZM58.6008 0.498782L59.3737 11.861L63.6579 11.5696L62.885 0.207339L58.6008 0.498782ZM60.6927 9.73229L56.5961 11.4328L58.2424 15.3988L62.339 13.6983L60.6927 9.73229ZM57.4193 15.5628H61.5931V11.2687H57.4193V15.5628ZM59.4507 13.5564L61.0739 38.2905L65.3588 38.0093L63.7356 13.2752L59.4507 13.5564ZM63.2768 40.2961L79.7404 39.8323L79.6195 35.5399L63.1559 36.0037L63.2768 40.2961ZM77.5343 37.7649L77.8435 46.1899L82.1348 46.0324L81.8256 37.6074L77.5343 37.7649ZM97.7813 40.546L95.636 40.6336L95.7337 43.0278L98.1029 42.6688L97.7813 40.546ZM107.984 39.0001L108.306 41.1229L110.499 40.7907L110.095 38.6097L107.984 39.0001ZM103.81 16.4302L105.921 16.0398L105.6 14.3029L103.834 14.2833L103.81 16.4302ZM96.8537 16.3529L96.8776 14.206L94.6199 14.1809L94.7083 16.4371L96.8537 16.3529ZM97.1629 24.2369L97.5159 26.3548L99.3825 26.0437L99.3083 24.1528L97.1629 24.2369ZM94.3803 24.7007L94.0274 22.5829L93.8596 26.7837L94.3803 24.7007ZM97.1629 25.3964L99.3082 25.3088L99.2427 23.7031L97.6837 23.3134L97.1629 25.3964ZM120.506 17.6669L121.284 19.668L122.714 19.1119L122.651 17.579L120.506 17.6669ZM116.332 19.2901L115.554 17.289L116.523 21.4287L116.332 19.2901ZM120.66 18.9036L122.806 18.8155L122.713 16.5648L120.469 16.7651L120.66 18.9036ZM121.82 47.116L122.632 49.1035L124.027 48.5335L123.965 47.0278L121.82 47.116ZM114.631 50.0532L114.806 52.1932L115.136 52.1662L115.444 52.0407L114.631 50.0532ZM107.984 50.5942L107.81 48.4543L107.645 52.7143L107.984 50.5942ZM111.849 51.2126L112.663 53.1993L119.737 50.3003L112.188 49.0925L111.849 51.2126ZM102.419 55.0773L101.777 57.1262L102.516 57.3577L103.233 57.064L102.419 55.0773ZM83.1727 49.0484L81.0325 49.2205L81.1487 50.6643L82.5309 51.0972L83.1727 49.0484ZM82.0906 35.5992L81.7759 33.4753L79.7894 33.7696L79.9504 35.7714L82.0906 35.5992ZM86.2645 34.9808L86.5791 37.1047L86.6485 32.8684L86.2645 34.9808ZM82.0133 34.2079L79.8734 34.3839L80.0085 36.0256L81.6292 36.3203L82.0133 34.2079ZM80.0809 10.7105L79.2571 8.72775L77.8129 9.3278L77.9411 10.8864L80.0809 10.7105ZM102.032 1.58976L102.773 -0.425501L101.985 -0.715327L101.209 -0.392961L102.032 1.58976ZM120.119 8.23706L122.265 8.14914L122.206 6.71644L120.86 6.22179L120.119 8.23706ZM98.1029 42.6688L108.306 41.1229L107.662 36.8773L97.4596 38.4232L98.1029 42.6688ZM110.095 38.6097L105.921 16.0398L101.699 16.8207L105.873 39.3906L110.095 38.6097ZM103.834 14.2833L96.8776 14.206L96.8299 18.4999L103.786 18.5772L103.834 14.2833ZM94.7083 16.4371L95.0175 24.3211L99.3083 24.1528L98.9992 16.2688L94.7083 16.4371ZM96.8099 22.1191L94.0274 22.5829L94.7333 26.8186L97.5159 26.3548L96.8099 22.1191ZM93.8596 26.7837L96.6422 27.4793L97.6837 23.3134L94.9011 22.6178L93.8596 26.7837ZM95.0177 25.4839L95.636 40.6336L99.9265 40.4584L99.3082 25.3088L95.0177 25.4839ZM119.728 15.6659L115.554 17.289L117.11 21.2912L121.284 19.668L119.728 15.6659ZM116.523 21.4287L120.851 21.0422L120.469 16.7651L116.141 17.1516L116.523 21.4287ZM118.515 18.9918L119.674 47.2042L123.965 47.0278L122.806 18.8155L118.515 18.9918ZM121.008 45.1285L113.819 48.0656L115.444 52.0407L122.632 49.1035L121.008 45.1285ZM114.457 47.9132L107.81 48.4543L108.158 52.7342L114.806 52.1932L114.457 47.9132ZM107.645 52.7143L111.51 53.3327L112.188 49.0925L108.323 48.4741L107.645 52.7143ZM111.035 49.2259L101.605 53.0906L103.233 57.064L112.663 53.1993L111.035 49.2259ZM103.061 53.0284L83.8145 46.9995L82.5309 51.0972L101.777 57.1262L103.061 53.0284ZM85.3128 48.8762L84.2307 35.427L79.9504 35.7714L81.0325 49.2205L85.3128 48.8762ZM82.4052 37.7231L86.5791 37.1047L85.9498 32.8569L81.7759 33.4753L82.4052 37.7231ZM86.6485 32.8684L82.3974 32.0955L81.6292 36.3203L85.8804 37.0933L86.6485 32.8684ZM84.1531 34.0319L82.2208 10.5345L77.9411 10.8864L79.8734 34.3839L84.1531 34.0319ZM80.9047 12.6932L102.856 3.57249L101.209 -0.392961L79.2571 8.72775L80.9047 12.6932ZM101.292 3.60503L119.379 10.2523L120.86 6.22179L102.773 -0.425501L101.292 3.60503ZM117.974 8.32498L118.36 17.7549L122.651 17.579L122.265 8.14914L117.974 8.32498ZM160.899 18.2853L160.868 20.4321L162.927 20.4619L163.043 18.4062L160.899 18.2853ZM139.489 17.9761L139.52 15.8293L137.221 15.7961L137.345 18.092L139.489 17.9761ZM139.643 20.836L140.097 22.9346L141.886 22.5478L141.787 20.7201L139.643 20.836ZM136.783 21.4544L136.33 19.3558L136.559 23.5896L136.783 21.4544ZM139.721 21.7635L141.862 21.6016L141.726 19.8158L139.945 19.6283L139.721 21.7635ZM141.112 40.1595L138.971 40.3215L139.112 42.19L140.983 42.3027L141.112 40.1595ZM160.358 41.3189L162.499 41.1543L162.355 39.2883L160.487 39.1758L160.358 41.3189ZM160.667 45.3382L161.384 47.3621L162.934 46.8131L162.808 45.1736L160.667 45.3382ZM156.957 46.6522L156.24 44.6284L156.748 48.789L156.957 46.6522ZM160.899 47.0387L163.041 46.8931L162.918 45.0793L161.109 44.9019L160.899 47.0387ZM161.44 55L161.507 57.146L163.733 57.0766L163.582 54.8544L161.44 55ZM134.155 55.8502L132.384 57.0638L133.048 58.0328L134.222 57.9963L134.155 55.8502ZM131.296 51.6764L130.723 49.607L127.824 50.4088L129.524 52.8899L131.296 51.6764ZM134.928 50.6715L135.501 52.7409L134.928 48.5245V50.6715ZM130.6 50.6715L128.823 51.876L129.461 52.8186H130.6V50.6715ZM124.262 41.3189L122.116 41.3997L122.139 42.0143L122.484 42.5234L124.262 41.3189ZM123.334 16.6621L121.688 15.2841L121.158 15.9175L121.189 16.7428L123.334 16.6621ZM135.238 2.44L135.3 0.293856L134.259 0.263512L133.591 1.06197L135.238 2.44ZM161.749 3.21294L163.893 3.33387L164.017 1.13109L161.812 1.0668L161.749 3.21294ZM160.93 16.1385L139.52 15.8293L139.458 20.123L160.868 20.4321L160.93 16.1385ZM137.345 18.092L137.499 20.9519L141.787 20.7201L141.633 17.8602L137.345 18.092ZM139.19 18.7374L136.33 19.3558L137.237 23.5529L140.097 22.9346L139.19 18.7374ZM136.559 23.5896L139.496 23.8988L139.945 19.6283L137.008 19.3191L136.559 23.5896ZM137.58 21.9255L138.971 40.3215L143.253 39.9976L141.862 21.6016L137.58 21.9255ZM140.983 42.3027L160.229 43.4621L160.487 39.1758L141.241 38.0164L140.983 42.3027ZM158.217 41.4836L158.527 45.5029L162.808 45.1736L162.499 41.1543L158.217 41.4836ZM159.95 43.3144L156.24 44.6284L157.674 48.6761L161.384 47.3621L159.95 43.3144ZM156.748 48.789L160.69 49.1755L161.109 44.9019L157.167 44.5154L156.748 48.789ZM158.757 47.1843L159.298 55.1456L163.582 54.8544L163.041 46.8931L158.757 47.1843ZM161.373 52.854L134.089 53.7042L134.222 57.9963L161.507 57.146L161.373 52.854ZM135.927 54.6367L133.067 50.4628L129.524 52.8899L132.384 57.0638L135.927 54.6367ZM131.868 53.7457L135.501 52.7409L134.356 48.6022L130.723 49.607L131.868 53.7457ZM134.928 48.5245H130.6V52.8186H134.928V48.5245ZM132.377 49.467L126.039 40.1144L122.484 42.5234L128.823 51.876L132.377 49.467ZM126.407 41.2382L125.48 16.5814L121.189 16.7428L122.116 41.3997L126.407 41.2382ZM124.981 18.0401L136.884 3.81803L133.591 1.06197L121.688 15.2841L124.981 18.0401ZM135.175 4.58615L161.687 5.35909L161.812 1.0668L135.3 0.293856L135.175 4.58615ZM159.606 3.09202L158.756 18.1644L163.043 18.4062L163.893 3.33387L159.606 3.09202ZM202.23 19.4447L204.005 20.6527L205.024 19.1549L203.719 17.8981L202.23 19.4447ZM194.655 30.5751L192.88 29.3671L192.139 30.4553L192.773 31.609L194.655 30.5751ZM206.249 51.6764L207.235 53.5837L209.191 52.5725L208.131 50.6424L206.249 51.6764ZM192.491 58.7874L190.54 59.6838L191.479 61.7274L193.477 60.6948L192.491 58.7874ZM189.863 53.0676L188.631 51.3087L187.164 52.3361L187.912 53.964L189.863 53.0676ZM191.409 51.9855L192.64 53.7445L199.11 49.2155L191.237 49.8453L191.409 51.9855ZM189.476 52.1401L187.525 53.036L188.151 54.4L189.647 54.2803L189.476 52.1401ZM183.834 39.8504L185.785 38.9545L181.699 40.0756L183.834 39.8504ZM185.612 56.7005L185.577 58.8472L188.001 58.8867L187.747 56.4752L185.612 56.7005ZM166.597 56.3913L164.455 56.5333L164.586 58.5059L166.562 58.5381L166.597 56.3913ZM165.747 43.5605L165.416 41.4392L163.475 41.7424L163.605 43.7024L165.747 43.5605ZM170.694 42.7875L171.025 44.9088L170.924 40.6528L170.694 42.7875ZM165.67 42.2465L163.528 42.3939L163.651 44.1886L165.44 44.3812L165.67 42.2465ZM163.042 4.06318L162.817 1.92791L160.757 2.1447L160.9 4.2106L163.042 4.06318ZM180.665 2.20812L182.81 2.1256L182.722 -0.167358L180.44 0.0728569L180.665 2.20812ZM180.974 10.2467L181.934 12.1671L183.173 11.5478L183.119 10.1642L180.974 10.2467ZM179.273 11.0969L178.313 9.17656L173.849 11.4089L178.54 13.1147L179.273 11.0969ZM180.974 11.7153L183.12 11.6461L183.073 10.194L181.708 9.69751L180.974 11.7153ZM181.283 21.2998L179.137 21.369L179.368 28.5286L183.113 22.4223L181.283 21.2998ZM191.95 3.90859L193.313 2.24984L191.408 0.684587L190.119 2.78605L191.95 3.90859ZM205.399 14.9616L207.154 16.1983L208.302 14.5686L206.762 13.3029L205.399 14.9616ZM203.003 18.3626L202.34 20.4049L203.846 20.8933L204.758 19.5992L203.003 18.3626ZM200.143 17.4351L200.805 15.3927L198.654 18.9816L200.143 17.4351ZM200.455 18.2367L192.88 29.3671L196.43 31.783L204.005 20.6527L200.455 18.2367ZM192.773 31.609L204.367 52.7103L208.131 50.6424L196.537 29.5411L192.773 31.609ZM205.263 49.769L191.505 56.8801L193.477 60.6948L207.235 53.5837L205.263 49.769ZM194.442 57.891L191.814 52.1712L187.912 53.964L190.54 59.6838L194.442 57.891ZM191.094 54.8266L192.64 53.7445L190.177 50.2266L188.631 51.3087L191.094 54.8266ZM191.237 49.8453L189.305 49.9999L189.647 54.2803L191.58 54.1258L191.237 49.8453ZM191.427 51.2443L185.785 38.9545L181.883 40.7462L187.525 53.036L191.427 51.2443ZM181.699 40.0756L183.476 56.9257L187.747 56.4752L185.969 39.6251L181.699 40.0756ZM185.646 54.5537L166.632 54.2445L166.562 58.5381L185.577 58.8472L185.646 54.5537ZM168.74 56.2493L167.889 43.4185L163.605 43.7024L164.455 56.5333L168.74 56.2493ZM166.078 45.6818L171.025 44.9088L170.362 40.6662L165.416 41.4392L166.078 45.6818ZM170.924 40.6528L165.9 40.1118L165.44 44.3812L170.464 44.9222L170.924 40.6528ZM167.812 42.099L165.184 3.91575L160.9 4.2106L163.528 42.3939L167.812 42.099ZM163.266 6.19844L180.889 4.34338L180.44 0.0728569L162.817 1.92791L163.266 6.19844ZM178.519 2.29064L178.828 10.3292L183.119 10.1642L182.81 2.1256L178.519 2.29064ZM180.014 8.32632L178.313 9.17656L180.234 13.0173L181.934 12.1671L180.014 8.32632ZM178.54 13.1147L180.24 13.7331L181.708 9.69751L180.007 9.07915L178.54 13.1147ZM178.828 11.7845L179.137 21.369L183.429 21.2305L183.12 11.6461L178.828 11.7845ZM183.113 22.4223L193.78 5.03113L190.119 2.78605L179.453 20.1772L183.113 22.4223ZM190.586 5.56734L204.036 16.6204L206.762 13.3029L193.313 2.24984L190.586 5.56734ZM203.644 13.725L201.248 17.126L204.758 19.5992L207.154 16.1983L203.644 13.725ZM203.665 16.3203L200.805 15.3927L199.48 19.4774L202.34 20.4049L203.665 16.3203ZM198.654 18.9816L200.74 20.9913L203.719 17.8981L201.632 15.8885L198.654 18.9816ZM244.232 18.2853L244.201 20.4321L246.26 20.4619L246.376 18.4062L244.232 18.2853ZM222.821 17.9761L222.852 15.8293L220.553 15.7961L220.677 18.092L222.821 17.9761ZM222.976 20.836L223.43 22.9346L225.219 22.5478L225.12 20.7201L222.976 20.836ZM220.116 21.4544L219.662 19.3558L219.891 23.5896L220.116 21.4544ZM223.053 21.7635L225.194 21.6016L225.059 19.8158L223.278 19.6283L223.053 21.7635ZM224.445 40.1595L222.304 40.3215L222.445 42.19L224.315 42.3027L224.445 40.1595ZM243.691 41.3189L245.832 41.1543L245.688 39.2883L243.82 39.1758L243.691 41.3189ZM244 45.3382L244.717 47.3621L246.267 46.8131L246.141 45.1736L244 45.3382ZM240.29 46.6522L239.573 44.6284L240.08 48.789L240.29 46.6522ZM244.232 47.0387L246.374 46.8931L246.251 45.0793L244.441 44.9019L244.232 47.0387ZM244.773 55L244.84 57.146L247.066 57.0766L246.915 54.8544L244.773 55ZM217.488 55.8502L215.717 57.0638L216.381 58.0328L217.555 57.9963L217.488 55.8502ZM214.628 51.6764L214.056 49.607L211.157 50.4088L212.857 52.8899L214.628 51.6764ZM218.261 50.6715L218.833 52.7409L218.261 48.5245V50.6715ZM213.933 50.6715L212.155 51.876L212.794 52.8186H213.933V50.6715ZM207.594 41.3189L205.449 41.3997L205.472 42.0143L205.817 42.5234L207.594 41.3189ZM206.667 16.6621L205.02 15.2841L204.49 15.9175L204.521 16.7428L206.667 16.6621ZM218.57 2.44L218.633 0.293856L217.592 0.263512L216.924 1.06197L218.57 2.44ZM245.082 3.21294L247.226 3.33387L247.35 1.13109L245.145 1.0668L245.082 3.21294ZM244.263 16.1385L222.852 15.8293L222.79 20.123L244.201 20.4321L244.263 16.1385ZM220.677 18.092L220.832 20.9519L225.12 20.7201L224.965 17.8602L220.677 18.092ZM222.522 18.7374L219.662 19.3558L220.57 23.5529L223.43 22.9346L222.522 18.7374ZM219.891 23.5896L222.829 23.8988L223.278 19.6283L220.341 19.3191L219.891 23.5896ZM220.912 21.9255L222.304 40.3215L226.586 39.9976L225.194 21.6016L220.912 21.9255ZM224.315 42.3027L243.562 43.4621L243.82 39.1758L224.574 38.0164L224.315 42.3027ZM241.55 41.4836L241.859 45.5029L246.141 45.1736L245.832 41.1543L241.55 41.4836ZM243.283 43.3144L239.573 44.6284L241.007 48.6761L244.717 47.3621L243.283 43.3144ZM240.08 48.789L244.022 49.1755L244.441 44.9019L240.499 44.5154L240.08 48.789ZM242.09 47.1843L242.631 55.1456L246.915 54.8544L246.374 46.8931L242.09 47.1843ZM244.706 52.854L217.421 53.7042L217.555 57.9963L244.84 57.146L244.706 52.854ZM219.259 54.6367L216.399 50.4628L212.857 52.8899L215.717 57.0638L219.259 54.6367ZM215.201 53.7457L218.833 52.7409L217.689 48.6022L214.056 49.607L215.201 53.7457ZM218.261 48.5245H213.933V52.8186H218.261V48.5245ZM215.71 49.467L209.372 40.1144L205.817 42.5234L212.155 51.876L215.71 49.467ZM209.74 41.2382L208.812 16.5814L204.521 16.7428L205.449 41.3997L209.74 41.2382ZM208.313 18.0401L220.217 3.81803L216.924 1.06197L205.02 15.2841L208.313 18.0401ZM218.508 4.58615L245.02 5.35909L245.145 1.0668L218.633 0.293856L218.508 4.58615ZM242.938 3.09202L242.088 18.1644L246.376 18.4062L247.226 3.33387L242.938 3.09202ZM270.413 24.2369L271.108 26.2682L272.56 25.7711V24.2369H270.413ZM270.413 11.7153H272.56V9.56824H270.413V11.7153ZM263.07 11.7153V9.56824H260.661L260.937 11.9614L263.07 11.7153ZM263.997 19.7539L265.188 21.5403L266.281 20.8121L266.13 19.5078L263.997 19.7539ZM262.374 20.836L261.183 19.0495L256.666 22.0612L262.021 22.9538L262.374 20.836ZM264.229 21.1452L266.364 20.9153L266.19 19.2952L264.582 19.0273L264.229 21.1452ZM264.77 26.1693L262.636 26.3992L262.923 29.0713L265.466 28.2005L264.77 26.1693ZM280.229 33.2031L278.765 31.6327L277.361 32.9419L278.505 34.4832L280.229 33.2031ZM288.036 43.7151L290.069 43.0249L289.961 42.7056L289.76 42.4349L288.036 43.7151ZM290.896 52.1401L291.73 54.1186L293.571 53.3423L292.929 51.45L290.896 52.1401ZM275.128 58.7874L273.209 59.7504L274.11 61.5465L275.962 60.7659L275.128 58.7874ZM264.538 37.6861L266.457 36.7231L262.392 37.7043L264.538 37.6861ZM264.616 46.8068L265.052 48.9091L266.778 48.5509L266.763 46.7886L264.616 46.8068ZM260.519 47.6571L260.083 45.5548L260.166 49.7749L260.519 47.6571ZM264.693 48.3527L266.84 48.328L266.819 46.5304L265.046 46.2349L264.693 48.3527ZM264.77 55.0773L264.802 57.2241L266.942 57.1928L266.917 55.0526L264.77 55.0773ZM248.925 55.3092L246.78 55.4014L246.87 57.4865L248.957 57.456L248.925 55.3092ZM246.838 6.76847L246.485 4.65063L244.611 4.96291L244.693 6.8607L246.838 6.76847ZM251.476 5.99553L251.829 8.11338L251.823 3.87676L251.476 5.99553ZM246.761 5.22259L244.615 5.29412L244.674 7.05615L246.414 7.34136L246.761 5.22259ZM246.684 2.90377L246.271 0.796719L244.477 1.14803L244.538 2.97529L246.684 2.90377ZM257.737 0.739531L257.834 -1.40534L257.577 -1.41695L257.324 -1.36752L257.737 0.739531ZM285.099 1.97623L287.245 1.90363L287.177 -0.0790616L285.196 -0.168634L285.099 1.97623ZM285.794 22.5365L286.303 24.6224L287.999 24.2087L287.94 22.4639L285.794 22.5365ZM282.625 23.3094L282.117 21.2235L282.314 25.4338L282.625 23.3094ZM285.794 23.7732L287.94 23.6922L287.873 21.9074L286.105 21.6487L285.794 23.7732ZM285.949 27.8698L287.413 29.4401L288.132 28.7703L288.095 27.7888L285.949 27.8698ZM272.56 24.2369V11.7153H268.266V24.2369H272.56ZM270.413 9.56824H263.07V13.8624H270.413V9.56824ZM260.937 11.9614L261.865 20L266.13 19.5078L265.203 11.4692L260.937 11.9614ZM262.806 17.9674L261.183 19.0495L263.565 22.6225L265.188 21.5403L262.806 17.9674ZM262.021 22.9538L263.876 23.263L264.582 19.0273L262.727 18.7182L262.021 22.9538ZM262.095 21.3751L262.636 26.3992L266.905 25.9394L266.364 20.9153L262.095 21.3751ZM265.466 28.2005L271.108 26.2682L269.717 22.2057L264.075 24.138L265.466 28.2005ZM278.505 34.4832L286.312 44.9952L289.76 42.4349L281.953 31.923L278.505 34.4832ZM286.003 44.4052L288.863 52.8303L292.929 51.45L290.069 43.0249L286.003 44.4052ZM290.062 50.1617L274.294 56.809L275.962 60.7659L291.73 54.1186L290.062 50.1617ZM277.047 57.8244L266.457 36.7231L262.62 38.6491L273.209 59.7504L277.047 57.8244ZM262.392 37.7043L262.469 46.825L266.763 46.7886L266.685 37.6679L262.392 37.7043ZM264.179 44.7046L260.083 45.5548L260.956 49.7593L265.052 48.9091L264.179 44.7046ZM260.166 49.7749L264.34 50.4706L265.046 46.2349L260.872 45.5392L260.166 49.7749ZM262.546 48.3774L262.623 55.102L266.917 55.0526L266.84 48.328L262.546 48.3774ZM264.739 52.9305L248.894 53.1623L248.957 57.456L264.802 57.2241L264.739 52.9305ZM251.07 55.217L248.983 6.67625L244.693 6.8607L246.78 55.4014L251.07 55.217ZM247.191 8.88632L251.829 8.11338L251.123 3.87769L246.485 4.65063L247.191 8.88632ZM251.823 3.87676L247.108 3.10381L246.414 7.34136L251.128 8.11431L251.823 3.87676ZM248.907 5.15106L248.829 2.83224L244.538 2.97529L244.615 5.29412L248.907 5.15106ZM247.096 5.01081L258.149 2.84658L257.324 -1.36752L246.271 0.796719L247.096 5.01081ZM257.64 2.8844L285.002 4.1211L285.196 -0.168634L257.834 -1.40534L257.64 2.8844ZM282.953 2.04884L283.649 22.6091L287.94 22.4639L287.245 1.90363L282.953 2.04884ZM285.286 20.4506L282.117 21.2235L283.134 25.3953L286.303 24.6224L285.286 20.4506ZM282.314 25.4338L285.483 25.8976L286.105 21.6487L282.936 21.185L282.314 25.4338ZM283.649 23.8541L283.803 27.9507L288.095 27.7888L287.94 23.6922L283.649 23.8541ZM284.485 26.2994L278.765 31.6327L281.693 34.7734L287.413 29.4401L284.485 26.2994ZM309.988 31.348L307.848 31.1697L307.672 33.2904L309.791 33.486L309.988 31.348ZM315.012 31.8118L314.815 33.9497L317.561 34.2032L317.133 31.479L315.012 31.8118ZM312.539 16.0438L314.66 15.711L314.079 12.0093L311.179 14.382L312.539 16.0438ZM310.838 17.4351L309.479 15.7733L308.744 16.3744L308.694 17.3222L310.838 17.4351ZM310.375 26.2466L310.916 28.3241L312.436 27.9277L312.519 26.3594L310.375 26.2466ZM308.597 26.7104L308.055 24.6328L302.812 26.0006L307.569 28.5952L308.597 26.7104ZM310.297 27.6379L312.437 27.8162L312.553 26.4226L311.325 25.753L310.297 27.6379ZM332.481 47.1933L333.088 49.2526L334.996 48.6897L334.58 46.7448L332.481 47.1933ZM327.766 48.5846L327.158 46.5253L327.766 50.7316V48.5846ZM332.79 48.5846L334.886 48.1188L334.512 46.4375H332.79V48.5846ZM333.717 52.7585L334.01 54.8854L336.319 54.5674L335.813 52.2927L333.717 52.7585ZM318.568 54.8454L316.449 55.1911L316.786 57.2582L318.861 56.9724L318.568 54.8454ZM316.79 43.9469L318.909 43.6013L318.651 42.0179L317.059 41.8168L316.79 43.9469ZM309.447 43.0194L309.716 40.8893L307.823 40.6502L307.363 42.5016L309.447 43.0194ZM306.201 56.0821L305.782 58.1879L307.79 58.5876L308.284 56.6L306.201 56.0821ZM290.665 52.9904L288.548 52.6309L288.198 54.6887L290.245 55.0961L290.665 52.9904ZM292.751 40.7006L292.934 38.5613L290.965 38.3938L290.635 40.3411L292.751 40.7006ZM296.384 41.0098L296.202 43.1491L297.219 39.0318L296.384 41.0098ZM292.906 39.5412L290.79 39.1777L290.502 40.8566L292.071 41.5192L292.906 39.5412ZM299.399 1.74436L299.518 -0.399376L297.607 -0.505915L297.283 1.38086L299.399 1.74436ZM322.973 3.05835L325.072 2.60615L324.728 1.00573L323.093 0.914621L322.973 3.05835ZM327.07 22.0727L327.996 24.0096L329.526 23.2781L329.169 21.6205L327.07 22.0727ZM325.292 22.9229L324.366 20.986L318.414 23.8327L324.901 25.0341L325.292 22.9229ZM327.379 23.3094L329.479 22.8609L329.18 21.4592L327.77 21.1982L327.379 23.3094ZM309.791 33.486L314.815 33.9497L315.21 29.6738L310.185 29.21L309.791 33.486ZM317.133 31.479L314.66 15.711L310.418 16.3765L312.891 32.1445L317.133 31.479ZM311.179 14.382L309.479 15.7733L312.198 19.0968L313.898 17.7055L311.179 14.382ZM308.694 17.3222L308.23 26.1337L312.519 26.3594L312.982 17.5479L308.694 17.3222ZM309.833 24.1691L308.055 24.6328L309.139 28.7879L310.916 28.3241L309.833 24.1691ZM307.569 28.5952L309.269 29.5228L311.325 25.753L309.625 24.8255L307.569 28.5952ZM308.158 27.4596L307.848 31.1697L312.128 31.5263L312.437 27.8162L308.158 27.4596ZM331.873 45.134L327.158 46.5253L328.373 50.6439L333.088 49.2526L331.873 45.134ZM327.766 50.7316H332.79V46.4375H327.766V50.7316ZM330.694 49.0504L331.621 53.2242L335.813 52.2927L334.886 48.1188L330.694 49.0504ZM333.424 50.6315L318.275 52.7184L318.861 56.9724L334.01 54.8854L333.424 50.6315ZM320.687 54.4998L318.909 43.6013L314.671 44.2926L316.449 55.1911L320.687 54.4998ZM317.059 41.8168L309.716 40.8893L309.178 45.1495L316.521 46.0771L317.059 41.8168ZM307.363 42.5016L304.117 55.5643L308.284 56.6L311.531 43.5372L307.363 42.5016ZM306.62 53.9764L291.084 50.8846L290.245 55.0961L305.782 58.1879L306.62 53.9764ZM292.781 53.3498L294.868 41.06L290.635 40.3411L288.548 52.6309L292.781 53.3498ZM292.569 42.8399L296.202 43.1491L296.566 38.8704L292.934 38.5613L292.569 42.8399ZM297.219 39.0318L293.741 37.5632L292.071 41.5192L295.549 42.9877L297.219 39.0318ZM295.022 39.9047L301.515 2.10785L297.283 1.38086L290.79 39.1777L295.022 39.9047ZM299.279 3.88809L322.854 5.20208L323.093 0.914621L299.518 -0.399376L299.279 3.88809ZM320.875 3.51055L324.971 22.5249L329.169 21.6205L325.072 2.60615L320.875 3.51055ZM326.144 20.1358L324.366 20.986L326.219 24.8599L327.996 24.0096L326.144 20.1358ZM324.901 25.0341L326.988 25.4206L327.77 21.1982L325.683 20.8118L324.901 25.0341ZM325.28 23.7579L330.381 47.6418L334.58 46.7448L329.479 22.8609L325.28 23.7579ZM371.727 5.68635L371.937 7.8231L374.101 7.61026L373.861 5.44926L371.727 5.68635ZM367.012 6.15012L366.802 4.01337L366.738 8.27952L367.012 6.15012ZM371.805 6.76847L373.939 6.53858L373.758 4.85568L372.079 4.63907L371.805 6.76847ZM372.887 16.8167L372.999 18.9608L375.264 18.8425L375.021 16.5868L372.887 16.8167ZM352.172 17.8988L352.06 15.7547L349.881 15.8685L350.03 18.0449L352.172 17.8988ZM352.404 21.2998L350.262 21.4458L350.403 23.5253L352.486 23.4452L352.404 21.2998ZM368.481 20.6814L370.627 20.6189L370.564 18.4526L368.398 18.5359L368.481 20.6814ZM368.713 28.6427L369.364 30.6887L370.906 30.198L370.859 28.5802L368.713 28.6427ZM367.012 29.1838L366.361 27.1378L360.357 29.0482L366.279 31.2016L367.012 29.1838ZM368.713 29.8021L370.859 29.7268L370.808 28.2793L369.447 27.7843L368.713 29.8021ZM368.867 34.2079L368.946 36.3535L371.088 36.2752L371.013 34.1326L368.867 34.2079ZM351.94 34.8262L351.862 32.6806L349.773 32.7569L349.793 34.8471L351.94 34.8262ZM352.017 42.7875L352.311 44.9145L354.183 44.6563L354.164 42.7667L352.017 42.7875ZM347.534 43.4059L347.241 41.279L347.169 45.5217L347.534 43.4059ZM352.017 44.1788L354.164 44.1482L354.139 42.3658L352.382 42.063L352.017 44.1788ZM352.172 55V57.1471H354.35L354.319 54.9693L352.172 55ZM335.94 55L333.794 55.0489L333.841 57.1471H335.94V55ZM335.322 27.8698L334.918 25.761L333.134 26.1027L333.175 27.9187L335.322 27.8698ZM338.955 27.1741L339.358 29.2829L339.216 25.043L338.955 27.1741ZM335.167 26.7104L333.021 26.7568L333.061 28.6155L334.906 28.8415L335.167 26.7104ZM334.703 5.29988L334.282 3.19452L332.518 3.54741L332.557 5.34638L334.703 5.29988ZM354.8 1.28059L355.18 -0.832614L354.779 -0.904715L354.379 -0.824777L354.8 1.28059ZM371.573 4.29506L373.707 4.05796L373.53 2.46532L371.953 2.18186L371.573 4.29506ZM371.517 3.54961L366.802 4.01337L367.223 8.28687L371.937 7.8231L371.517 3.54961ZM366.738 8.27952L371.53 8.89788L372.079 4.63907L367.287 4.02071L366.738 8.27952ZM369.67 6.99836L370.752 17.0466L375.021 16.5868L373.939 6.53858L369.67 6.99836ZM372.775 14.6726L352.06 15.7547L352.284 20.043L372.999 18.9608L372.775 14.6726ZM350.03 18.0449L350.262 21.4458L354.546 21.1537L354.314 17.7528L350.03 18.0449ZM352.486 23.4452L368.563 22.8269L368.398 18.5359L352.321 19.1543L352.486 23.4452ZM366.335 20.7439L366.567 28.7052L370.859 28.5802L370.627 20.6189L366.335 20.7439ZM368.062 26.5967L366.361 27.1378L367.663 31.2298L369.364 30.6887L368.062 26.5967ZM366.279 31.2016L367.979 31.8199L369.447 27.7843L367.746 27.166L366.279 31.2016ZM366.567 29.8774L366.722 34.2832L371.013 34.1326L370.859 29.7268L366.567 29.8774ZM368.789 32.0623L351.862 32.6806L352.018 36.9719L368.946 36.3535L368.789 32.0623ZM349.793 34.8471L349.87 42.8084L354.164 42.7667L354.087 34.8054L349.793 34.8471ZM351.724 40.6606L347.241 41.279L347.828 45.5328L352.311 44.9145L351.724 40.6606ZM347.169 45.5217L351.653 46.2947L352.382 42.063L347.899 41.29L347.169 45.5217ZM349.87 44.2095L350.025 55.0307L354.319 54.9693L354.164 44.1482L349.87 44.2095ZM352.172 52.8529H335.94V57.1471H352.172V52.8529ZM338.087 54.9511L337.468 27.8208L333.175 27.9187L333.794 55.0489L338.087 54.9511ZM335.726 29.9785L339.358 29.2829L338.551 25.0654L334.918 25.761L335.726 29.9785ZM339.216 25.043L335.428 24.5792L334.906 28.8415L338.694 29.3053L339.216 25.043ZM337.314 26.6639L336.85 5.25339L332.557 5.34638L333.021 26.7568L337.314 26.6639ZM335.125 7.40525L355.221 3.38595L354.379 -0.824777L334.282 3.19452L335.125 7.40525ZM354.42 3.39379L371.193 6.40826L371.953 2.18186L355.18 -0.832614L354.42 3.39379ZM369.439 4.53216L369.593 5.92345L373.861 5.44926L373.707 4.05796L369.439 4.53216ZM411.361 5.37718L412.499 7.19788L413.536 6.54977L413.508 5.32726L411.361 5.37718ZM409.506 6.53659L408.368 4.71589L403.511 7.75171L409.167 8.65668L409.506 6.53659ZM411.438 6.84577L413.584 6.76968L413.521 5.0047L411.778 4.72567L411.438 6.84577ZM411.825 17.7442L412.103 19.8733L414.04 19.6206L413.971 17.6681L411.825 17.7442ZM401.158 19.1355L400.881 17.0065L398.937 17.26L399.013 19.218L401.158 19.1355ZM401.236 21.1452L401.989 23.1555L403.441 22.6113L403.381 21.0627L401.236 21.1452ZM398.144 22.3046L397.39 20.2942L398.251 24.449L398.144 22.3046ZM401.236 22.15L403.381 22.0809L403.311 19.8965L401.128 20.0056L401.236 22.15ZM402.318 55.7729V57.92H404.535L404.464 55.7039L402.318 55.7729ZM385.854 55.7729L383.709 55.8627L383.795 57.92H385.854V55.7729ZM385.158 39.1547L384.436 37.1327L382.947 37.6646L383.013 39.2445L385.158 39.1547ZM387.323 38.3818L388.045 40.4037L395.65 37.6877L387.7 36.2681L387.323 38.3818ZM385.158 37.9953L383.013 38.0839L383.084 39.8059L384.781 40.1089L385.158 37.9953ZM384.385 19.2901L386.531 19.2015L386.45 17.2593L384.51 17.1467L384.385 19.2901ZM372.405 18.5945L370.258 18.5554L370.221 20.6183L372.28 20.7379L372.405 18.5945ZM372.482 14.3433L372.185 12.2168L370.369 12.4703L370.335 14.3043L372.482 14.3433ZM375.806 13.8795L376.102 16.006L376.246 11.778L375.806 13.8795ZM372.482 13.1839L370.335 13.1521L370.309 14.9226L372.042 15.2854L372.482 13.1839ZM372.637 2.74917L372.598 0.602464L370.521 0.639857L370.49 2.71737L372.637 2.74917ZM411.284 2.05353L413.43 2.00361L413.381 -0.131622L411.245 -0.0931833L411.284 2.05353ZM410.223 3.55648L408.368 4.71589L410.644 8.35729L412.499 7.19788L410.223 3.55648ZM409.167 8.65668L411.099 8.96586L411.778 4.72567L409.845 4.4165L409.167 8.65668ZM409.293 6.92185L409.679 17.8203L413.971 17.6681L413.584 6.76968L409.293 6.92185ZM411.547 15.6152L400.881 17.0065L401.436 21.2646L412.103 19.8733L411.547 15.6152ZM399.013 19.218L399.09 21.2277L403.381 21.0627L403.304 19.053L399.013 19.218ZM400.482 19.1348L397.39 20.2942L398.898 24.3149L401.989 23.1555L400.482 19.1348ZM398.251 24.449L401.343 24.2944L401.128 20.0056L398.037 20.1602L398.251 24.449ZM399.09 22.2191L400.172 55.842L404.464 55.7039L403.381 22.0809L399.09 22.2191ZM402.318 53.6259H385.854V57.92H402.318V53.6259ZM387.999 55.6831L387.304 39.0649L383.013 39.2445L383.709 55.8627L387.999 55.6831ZM385.881 41.1767L388.045 40.4037L386.6 36.3598L384.436 37.1327L385.881 41.1767ZM387.7 36.2681L385.536 35.8817L384.781 40.1089L386.945 40.4954L387.7 36.2681ZM387.304 37.9066L386.531 19.2015L382.24 19.3788L383.013 38.0839L387.304 37.9066ZM384.51 17.1467L372.529 16.451L372.28 20.7379L384.261 21.4336L384.51 17.1467ZM374.552 18.6335L374.629 14.3823L370.335 14.3043L370.258 18.5554L374.552 18.6335ZM372.779 16.4698L376.102 16.006L375.509 11.7531L372.185 12.2168L372.779 16.4698ZM376.246 11.778L372.922 11.0824L372.042 15.2854L375.366 15.9811L376.246 11.778ZM374.629 13.2157L374.784 2.78098L370.49 2.71737L370.335 13.1521L374.629 13.2157ZM372.675 4.89589L411.322 4.20024L411.245 -0.0931833L372.598 0.602464L372.675 4.89589ZM409.137 2.10345L409.215 5.4271L413.508 5.32726L413.43 2.00361L409.137 2.10345Z" fill="url(#paint0_linear_128_2)"/>
<defs>
<linearGradient id="paint0_linear_128_2" x1="-1" y1="34" x2="411.992" y2="26.9797" gradientUnits="userSpaceOnUse">
<stop stop-color="#383838"/>
<stop offset="1"/>
</linearGradient>
</defs>
</svg>
