<svg width="28" height="25" viewBox="0 0 28 25" fill="none" xmlns="http://www.w3.org/2000/svg">
<path d="M15.75 20.5H15.6411L15.5421 20.5453L7.5 24.2217V21V20.5H7H3.5C2.70435 20.5 1.94129 20.1839 1.37868 19.6213C0.81607 19.0587 0.5 18.2956 0.5 17.5V3.5C0.5 2.70435 0.81607 1.94129 1.37868 1.37868C1.94129 0.81607 2.70435 0.5 3.5 0.5H24.5C25.2956 0.5 26.0587 0.81607 26.6213 1.37868C27.1839 1.94129 27.5 2.70435 27.5 3.5V17.5C27.5 18.2956 27.1839 19.0587 26.6213 19.6213C26.0587 20.1839 25.2956 20.5 24.5 20.5H15.75ZM9.25 8.75V8.25H8.75H5.25H4.75V8.75V12.25V12.75H5.25H8.75H9.25V12.25V8.75ZM12.25 8.25H11.75V8.75V12.25V12.75H12.25H15.75H16.25V12.25V8.75V8.25H15.75H12.25ZM23.25 8.75V8.25H22.75H19.25H18.75V8.75V12.25V12.75H19.25H22.75H23.25V12.25V8.75Z" fill="white" stroke="#656565"/>
</svg>
