<svg width="21" height="22" viewBox="0 0 21 22" fill="none" xmlns="http://www.w3.org/2000/svg">
<path d="M10.7293 14.5C9.80107 14.5 8.91084 14.1313 8.25446 13.4749C7.59808 12.8185 7.22933 11.9283 7.22933 11C7.22933 10.0717 7.59808 9.18151 8.25446 8.52513C8.91084 7.86875 9.80107 7.5 10.7293 7.5C11.6576 7.5 12.5478 7.86875 13.2042 8.52513C13.8606 9.18151 14.2293 10.0717 14.2293 11C14.2293 11.9283 13.8606 12.8185 13.2042 13.4749C12.5478 14.1313 11.6576 14.5 10.7293 14.5ZM18.1593 11.97C18.1993 11.65 18.2293 11.33 18.2293 11C18.2293 10.67 18.1993 10.34 18.1593 10L20.2693 8.37C20.4593 8.22 20.5093 7.95 20.3893 7.73L18.3893 4.27C18.2693 4.05 17.9993 3.96 17.7793 4.05L15.2893 5.05C14.7693 4.66 14.2293 4.32 13.5993 4.07L13.2293 1.42C13.209 1.30222 13.1477 1.19543 13.0561 1.11855C12.9646 1.04168 12.8489 0.99968 12.7293 1H8.72933C8.47933 1 8.26933 1.18 8.22933 1.42L7.85933 4.07C7.22933 4.32 6.68933 4.66 6.16933 5.05L3.67933 4.05C3.45933 3.96 3.18933 4.05 3.06933 4.27L1.06933 7.73C0.939332 7.95 0.999332 8.22 1.18933 8.37L3.29933 10C3.25933 10.34 3.22933 10.67 3.22933 11C3.22933 11.33 3.25933 11.65 3.29933 11.97L1.18933 13.63C0.999332 13.78 0.939332 14.05 1.06933 14.27L3.06933 17.73C3.18933 17.95 3.45933 18.03 3.67933 17.95L6.16933 16.94C6.68933 17.34 7.22933 17.68 7.85933 17.93L8.22933 20.58C8.26933 20.82 8.47933 21 8.72933 21H12.7293C12.9793 21 13.1893 20.82 13.2293 20.58L13.5993 17.93C14.2293 17.67 14.7693 17.34 15.2893 16.94L17.7793 17.95C17.9993 18.03 18.2693 17.95 18.3893 17.73L20.3893 14.27C20.5093 14.05 20.4593 13.78 20.2693 13.63L18.1593 11.97Z" fill="white" stroke="black" stroke-width="0.5"/>
</svg>
