<svg width="18" height="19" viewBox="0 0 18 19" fill="none" xmlns="http://www.w3.org/2000/svg">
<path d="M1 16C1 14.9391 1.42143 13.9217 2.17157 13.1716C2.92172 12.4214 3.93913 12 5 12H13C14.0609 12 15.0783 12.4214 15.8284 13.1716C16.5786 13.9217 17 14.9391 17 16C17 16.5304 16.7893 17.0391 16.4142 17.4142C16.0391 17.7893 15.5304 18 15 18H3C2.46957 18 1.96086 17.7893 1.58579 17.4142C1.21071 17.0391 1 16.5304 1 16Z" fill="white" stroke="#656565" stroke-width="1.33" stroke-linejoin="round"/>
<path d="M9 9C11.2091 9 13 7.20914 13 5C13 2.79086 11.2091 1 9 1C6.79086 1 5 2.79086 5 5C5 7.20914 6.79086 9 9 9Z" fill="white" stroke="#656565" stroke-width="1.33"/>
</svg>
