<svg width="21" height="22" viewBox="0 0 21 22" fill="none" xmlns="http://www.w3.org/2000/svg">
<path d="M20.3361 6.92994V17.792C20.3361 19.3319 19.0878 20.5803 17.5478 20.5803H3.45218C1.91225 20.5803 0.663881 19.3319 0.663881 17.792V3.45218C0.663881 1.91224 1.91224 0.663881 3.45218 0.663881H14.0701C14.8096 0.663881 15.5188 0.957647 16.0417 1.48055L19.5194 4.95831C20.0424 5.48122 20.3361 6.19044 20.3361 6.92994Z" fill="white" stroke="#656565" stroke-width="1.32776"/>
<path d="M6 1V5C6 5.55228 6.44772 6 7 6H12C12.5523 6 13 5.55228 13 5V1" stroke="#656565" stroke-width="1.33"/>
<path d="M17 21V15C17 14.4477 16.5523 14 16 14H5C4.44772 14 4 14.4477 4 15L4 21" stroke="#656565" stroke-width="1.33"/>
</svg>
